<svg width="16" height="15" viewBox="0 0 16 15" fill="none" xmlns="http://www.w3.org/2000/svg">
<path d="M6.35309 9.17648L4.10799 6.92776L3.0957 7.93643L6.35309 11.1938L15.5938 1.9531L14.5851 0.944427L6.35309 9.17648Z" fill="#EC407A"/>
<path d="M11.3133 7.45922C11.3603 7.76652 11.3965 8.05213 11.3965 8.36666C11.3965 11.0781 9.19115 13.2799 6.48329 13.2799C3.77181 13.2799 1.57009 11.0745 1.57009 8.36666C1.57009 5.65518 3.77543 3.45346 6.48329 3.45346C7.73419 3.45346 8.7067 3.87283 9.67922 4.62843L10.6915 3.61615C9.42615 2.59301 8.1391 2.02903 6.48329 2.02903C2.98367 2.02541 0.138428 4.87066 0.138428 8.36666C0.138428 11.8627 2.98367 14.7079 6.47967 14.7079C9.97568 14.7079 12.8209 11.8627 12.8209 8.36666C12.8209 7.60021 12.6835 7.0073 12.4883 6.28424L11.3133 7.45922Z" fill="#EC407A"/>
</svg>
